<?xml version="1.0" encoding="UTF-8"?>
<svg id="Layer_1" xmlns="http://www.w3.org/2000/svg" version="1.1" viewBox="0 0 795 308.8">
  <!-- Generator: Adobe Illustrator 29.6.0, SVG Export Plug-In . SVG Version: 2.1.1 Build 207)  -->
  <path d="M12.4,136.9c12.1-1.9,30.4-3.3,51.8-3.3s42.1,3.3,54.2,12.4c10.2,8.1,15.7,19.5,15.7,35s-15,34-27.3,38.8v.7c10.5,4.8,16.4,15,20.4,28.8,4.8,16.4,10,39.7,13.1,45.9h-43.8c-2.4-4.8-6.7-17.1-11.2-37.1-4.3-19-10.2-23.1-23.5-23.1h-6.9v60.2H12.4v-158.1ZM55,203.9h11.2c16.2,0,25.4-7.8,25.4-19.7s-7.8-18.8-22.1-18.8-12.4.2-14.5,1v37.6Z"/>
  <path d="M254.5,255.1c0,16.6.5,30,1,39.9h-37.1l-1.9-15.5h-.7c-4.3,6.4-14.5,18.1-35.4,18.1s-41.6-16.9-41.6-50.6v-69h43v62.1c0,15,4.8,23.1,15,23.1s12.1-5.5,13.8-10c.7-1.7,1-3.8,1-6.2v-69h43v77Z"/>
  <path d="M350.1,251.5c1.4,9.3,14.7,14.5,30,14.5s21.4-1.2,31.9-4.5l5.5,28.8c-14,5.5-29.2,7.4-43.8,7.4-41.1,0-64.4-22.8-64.4-59.9s17.6-62.3,60.6-62.3,54,27.8,54,59.9-1,13.3-1.7,16.2h-72ZM384.3,222.5c0-6.7-3.1-19-16.6-19s-17.4,11.7-18.1,19h34.7Z"/>
  <path d="M427.5,138.2c9-2.1,20.4-3.6,32.3-3.6,20,0,33.1,4.3,41.8,13.3,6.7,6.4,10,15,10,26.2,0,16.4-11.7,30.2-27.6,35.7v.7c13.6,3.1,34,14.7,34,40.9s-4.8,23.1-11.9,30.7c-10.7,10.7-28.1,15.2-50.9,15.2s-21.4-1-27.8-1.4v-157.6ZM438.9,206.2h23.3c23.3,0,37.8-13.8,37.8-31.4s-17.1-30.7-40.9-30.7-16.6.7-20.2,1.7v60.4ZM438.9,286.6c4.8,1,11.2,1.2,19.7,1.2,24.5,0,47.6-8.8,47.6-36.1s-21.6-36.1-47.1-36.1h-20.2v71.1Z"/>
  <path d="M714.4,236.6h.5c2.9-3.6,7.4-8.8,10.9-12.6l40.4-42.3h13.8l-46.1,47.3,52.5,66.8h-13.8l-46.6-59.9-11.7,12.4v47.6h-11.4V127h11.4v109.6Z"/>
  <g>
    <path d="M296.4,18.9c-.4-6-5.5-10.8-11.6-10.8s-11.2,4.8-11.6,10.9c2.7.8,6.8,1.8,11.5,1.8,4.8,0,9.1-1,11.8-1.9h0Z"/>
    <path d="M284.8,40c10.8,0,14.5-3.7,14.5-3.7l-3.5-11.2c-2.6.8-6.5,1.6-11.1,1.6s-8.2-.8-10.8-1.5l-2.8,11.3s2.9,3.5,13.7,3.5Z"/>
    <path d="M305.3,60.6c-1.4-5.8-3.9-9.9-6.4-12.8-4.5,2.4-9.7,4.5-14,4.5s-4.4-.5-6.2-1.2c.2.2.4.3.6.5,6.7,6.1,16.7,8.4,26.1,9Z"/>
    <path d="M295.9,45.1c-1.4-1.1-2.6-1.8-3.4-2.1-2-.8-4.8-1.5-7.4-1.5-4.3,0-7.6.8-10.6,1.9,1.8,2.2,5.1,5.1,10.3,5.1s6.6-1.2,11.1-3.4h0Z"/>
    <g>
      <path d="M322.3,105.4c-2.1-1.2-4.4-2.9-6.8-4.7-2.2-1.7-4.1-3.5-5.9-5.3,2.7,22.2-1.5,53.5-2.7,54.9.9,4.2,2.7,10.5,4.4,16.2h17.6c-1-1.7-2.4-3.9-4.4-6.6-9-11.9-3.7-44-2.1-54.5Z"/>
      <path d="M221.8,80.3h-2l-7.1-9h27.1l-6.9,9h-2.1c-.7,0-1.2.7-.9,1.4,1.4,3.1,5.5,10.2,13.8,10.2s12.4-7,13.8-10.1c.3-.7-.2-1.4-.9-1.4h-2l-9.4-12.3c-.4-.5-.9-.8-1.5-.8h0s0,0-.1,0c0,0,0,0-.1,0h-15.2v-12.9c4.5,2.3,12.4,5.4,23.3,6.8.6,0,1.1.1,1.6.1,4.8,0,14.3-2.5,15.6-2.7,2.5-.5,6.5,13.2,5.3,18.2-1.2,5.1-6.9,9.7-7.7,20.8-.7,9.4,2.9,39.8,2.9,45.6s-3.4,15.4-5.8,23.3h43c-2.4-8.3-5.9-20.6-5.9-23.3,0-4.2,3.8-37.8,2.9-45.5-1-9-7-16.9-7.7-20.8s.2-6.3.5-8.5c1.3,7.8,6.4,15.3,15.3,22.3,6.6,5.3,13.3,8.1,13.6,8.2.7.3,1.4.5,2.1.5,1.8,0,3.5-1,4.3-2.7,1.2-2.4.1-5.3-2.3-6.4-.4-.2-.9-.5-1.5-.8l1.6-5,3.1,1.1c.8.2,1.6-.2,1.9-1,.2-.8-.2-1.6-1-1.9l-2-.8s17.2-58.8,17.6-60.4c.4-1.5,1-11.6,0-11.9-1-.3-5.9,8.5-6.3,10.1-.4,1.5-17.6,60.4-17.6,60.4l-2.6-.6c-.8-.2-1.6.2-1.9,1-.2.8.2,1.6,1,1.9l3.6,1-1.2,3.9c-7-4.6-16.8-12.8-17.6-21.4,0-.4,0-.9-.1-1.3-13-.7-23-4.1-29.6-10.3-3.5-3.2-5.3-6.6-6.2-9-.8.4-1.6.7-2.3,1-4.9,2-12.2,5.1-15.2,4.7-14.9-1.9-23.3-7.6-23.3-7.6-2.3-1.7-5.5-1.1-7.2,1.2-1.7,2.3-1.1,5.5,1.2,7.2,0,0,.5.2.8.6v15h-15.1s0,0,0,0c0,0,0,0,0,0h0c-.6,0-1.1.3-1.5.8l-9.2,12.2h-2.1c-.7,0-1.2.7-.9,1.4,1.4,3.1,5.5,10.2,13.8,10.2s12.4-7,13.8-10.1c.3-.7-.2-1.4-.9-1.4ZM243.6,72.4l6.1,7.9h-12.1l6-7.9ZM275,94l12.3-4.2c1.1-.4,2.1.6,1.8,1.7l-7.5,33.7c-.4,1.4-2.4,1.3-2.7,0l-4.8-29.5c-.2-.7.2-1.4.9-1.6ZM202.9,80.3l6-7.9,6.1,7.9h-12.1Z"/>
    </g>
  </g>
  <rect x="263.3" y="166.5" width="43" height="128.5"/>
  <path d="M599.1,279.9c-7,5.9-15.6,9.3-25.1,9.3-23.3,0-41.6-21.4-41.6-49.9s13.1-50.4,42.3-50.4,41.8,28.8,41.8,49.7-1.2,14.4-3.4,20.6c1.7,4.7,3.9,9,6.7,12.8,5.1-8.9,8.2-20.2,8.2-34.1,0-34.7-21.4-58.5-53-58.5s-54,21.6-54,60.6,22.8,58.7,52.3,58.7,22.8-3.5,32.6-10.9c-2.5-2.4-4.8-5-6.8-7.9Z"/>
  <path d="M646.6,179.3c-11.8,0-23.1,3.8-32.4,11,2.6,2.1,4.9,4.5,7,7.1,6.4-5.3,14.8-8.6,25.1-8.6,30.2,0,41.8,28.8,41.8,49.7s-18.8,50.6-42.6,50.6-41.6-21.4-41.6-49.9.8-15.4,3.8-22.8c-1.6-4.1-3.8-7.7-6.4-11.2-6,9.5-8.8,20.1-8.8,34.8,0,35.7,22.8,58.7,52.3,58.7s54.7-18.3,54.7-60.9-21.4-58.5-53-58.5Z"/>
</svg>