<?xml version="1.0" encoding="UTF-8"?>
<svg id="Layer_1" xmlns="http://www.w3.org/2000/svg" version="1.1" viewBox="0 0 512 512">
  <!-- Generator: Adobe Illustrator 29.6.0, SVG Export Plug-In . SVG Version: 2.1.1 Build 207)  -->
  <defs>
    <style>
      .st0 {
        fill: #fff;
      }

      .st1 {
        fill: #222;
      }
    </style>
  </defs>
  <rect class="st1" x="-.2" y="0" width="512.6" height="512.1" rx="71.9" ry="71.9"/>
  <g>
    <path class="st0" d="M309.8,68.5c-1.2-16.6-15-29.7-31.9-29.7s-30.9,13.2-32,29.9c7.4,2.3,18.7,4.9,31.6,4.9,13.3,0,25-2.8,32.4-5.1h0Z"/>
    <path class="st0" d="M277.9,126.5c29.8,0,39.9-10.1,39.9-10.1l-9.7-30.9c-7.1,2.1-17.8,4.4-30.6,4.4s-22.6-2.1-29.7-4.2l-7.8,31.2s8.1,9.6,37.8,9.6Z"/>
    <path class="st0" d="M334.3,183.3c-3.8-15.9-10.8-27.4-17.7-35.2-12.3,6.5-26.6,12.3-38.6,12.3s-12.2-1.2-17.1-3.2c.5.5,1,1,1.5,1.4,18.5,16.7,46.1,23.1,72,24.7Z"/>
    <path class="st0" d="M308.5,140.6c-3.8-3-7.1-4.8-9.5-5.7-5.4-2.3-13.2-4-20.4-4-11.8,0-21,2.3-29.1,5.2,5,6.2,14.1,14,28.4,14s18.3-3.2,30.6-9.4h0Z"/>
    <g>
      <path class="st0" d="M381.1,306.8c-5.7-3.4-12.2-7.9-18.8-13-6-4.8-11.4-9.7-16.2-14.7,7.3,61.1-4.2,147.2-7.4,151.2,2.6,11.6,7.6,29,12,44.7h48.3c-2.7-4.8-6.6-10.9-12.1-18.1-24.8-32.8-10.2-121.2-5.9-150.1Z"/>
      <path class="st0" d="M104.5,237.7h-5.6l-19.4-24.7h74.7l-19,24.7h-5.7c-2,0-3.4,2-2.6,3.9,3.9,8.6,15.2,27.9,37.9,27.9s34-19.3,37.9-27.9c.8-1.9-.5-3.9-2.6-3.9h-5.6l-25.9-33.8c-1-1.3-2.5-2.2-4.1-2.2h0c0,0-.2,0-.3,0-.1,0-.2,0-.3,0h-41.8v-35.4c12.3,6.3,34.1,14.9,64,18.7,1.5.2,2.9.3,4.5.3,13.2,0,39.5-6.8,42.8-7.4,6.9-1.4,17.8,36.3,14.6,50.2-3.2,13.9-18.9,26.8-21.1,57.3-1.9,26,8,109.7,8,125.4s-9.3,42.5-16,64.2h118.2c-6.7-22.7-16.3-56.6-16.3-64.2,0-11.7,10.4-104,8-125.2-2.9-24.9-19.2-46.7-21.2-57.3-2-10.7.5-17.3,1.3-23.5,3.5,21.4,17.7,42.1,42.1,61.5,18.3,14.6,36.6,22.3,37.3,22.6,1.9.9,3.8,1.3,5.7,1.3,4.9,0,9.7-2.8,12-7.5,3.2-6.6.4-14.5-6.2-17.7-1.2-.6-2.6-1.3-4.1-2.1l4.3-13.9,8.6,2.9c2.2.6,4.5-.6,5.1-2.8.6-2.2-.6-4.5-2.8-5.1l-5.6-2.2s47.3-161.9,48.6-166.2c1.2-4.3,2.7-32,0-32.8-2.7-.8-16.2,23.5-17.5,27.8-1.2,4.3-48.6,166.2-48.6,166.2l-7.2-1.7c-2.2-.6-4.5.6-5.1,2.8-.6,2.2.6,4.5,2.8,5.1l10,2.9-3.3,10.6c-19.3-12.6-46.1-35.1-48.5-59-.1-1.2-.3-2.4-.4-3.5-35.9-1.8-63.3-11.3-81.6-28.2-9.6-8.9-14.6-18.1-17.2-24.7-2.2,1-4.3,1.9-6.4,2.8-13.4,5.6-33.7,14-41.9,13-41.1-5.1-64.1-20.8-64.2-20.9-6.4-4.5-15.3-3-19.8,3.3-4.5,6.4-3.1,15.3,3.3,19.8.2.1,1.3.7,2.3,1.5v41.2h-41.5c0,0-.1,0-.2,0,0,0,0,0-.1,0h0c-1.6,0-3.2.9-4.1,2.2l-25.2,33.7h-5.7c-2,0-3.4,2-2.6,3.9,3.9,8.6,15.2,27.9,37.9,27.9s34-19.3,37.9-27.9c.8-1.9-.5-3.9-2.6-3.9ZM164.5,215.8l16.8,21.8h-33.2l16.4-21.8ZM251.1,275.1l33.8-11.4c2.9-1,5.8,1.8,4.9,4.7l-20.6,92.8c-1.1,3.8-6.5,3.6-7.4-.2l-13.3-81.3c-.4-1.9.6-3.9,2.5-4.5ZM52.5,237.7l16.4-21.8,16.8,21.8h-33.2Z"/>
    </g>
  </g>
</svg>