<?xml version="1.0" encoding="UTF-8"?>
<svg id="Layer_1" xmlns="http://www.w3.org/2000/svg" version="1.1" viewBox="0 0 512 512">
  <!-- Generator: Adobe Illustrator 30.0.0, SVG Export Plug-In . SVG Version: 2.1.1 Build 123)  -->
  <defs>
    <style>
      .st0 {
        fill: #fff;
      }

      .st1 {
        fill: #222;
      }
    </style>
  </defs>
  <rect class="st1" x="-.2" y="0" width="512.6" height="512.1" rx="71.9" ry="71.9"/>
  <g>
    <path class="st0" d="M313.4,65.6c-1.2-17.1-15.5-30.5-32.9-30.5s-31.8,13.6-32.9,30.8c7.6,2.3,19.2,5,32.5,5,13.7,0,25.7-2.9,33.3-5.3h0Z"/>
    <path class="st0" d="M280.5,125.3c30.6,0,41-10.4,41-10.4l-10-31.8c-7.4,2.2-18.3,4.6-31.4,4.6s-23.2-2.2-30.5-4.3l-8,32.1s8.3,9.9,38.9,9.9Z"/>
    <path class="st0" d="M338.6,183.8c-3.9-16.4-11.1-28.2-18.2-36.2-12.6,6.7-27.3,12.6-39.7,12.6s-12.6-1.3-17.6-3.3c.5.5,1,1,1.6,1.5,19,17.2,47.4,23.7,74,25.4Z"/>
    <path class="st0" d="M312,139.8c-3.9-3.1-7.4-5-9.8-5.9-5.6-2.3-13.6-4.2-21-4.2-12.1,0-21.7,2.4-29.9,5.4,5.1,6.3,14.5,14.4,29.2,14.4s18.8-3.3,31.5-9.7h0Z"/>
    <g>
      <path class="st0" d="M386.7,310.8c-5.9-3.5-12.6-8.1-19.3-13.4-6.2-4.9-11.7-10-16.6-15.1,7.5,62.8-4.3,151.4-7.6,155.5,2.7,11.9,7.8,29.8,12.3,46h49.7c-2.8-4.9-6.8-11.2-12.4-18.6-25.5-33.7-10.5-124.6-6.1-154.4Z"/>
      <path class="st0" d="M102.2,239.7h-5.8l-20-25.4h76.8l-19.5,25.4h-5.9c-2.1,0-3.5,2.1-2.6,4,4,8.8,15.7,28.7,39,28.7s35-19.9,39-28.7c.9-1.9-.5-4-2.6-4h-5.8l-26.6-34.7c-1-1.3-2.6-2.3-4.2-2.3h0c0,0-.2,0-.3,0-.1,0-.2,0-.4,0h-43v-36.5c12.7,6.5,35.1,15.4,65.9,19.2,1.6.2,3,.3,4.7.3,13.6,0,40.6-7,44.1-7.7,7.1-1.4,18.4,37.3,15,51.7-3.3,14.3-19.4,27.6-21.8,59-2,26.7,8.2,112.8,8.2,129s-9.6,43.7-16.5,66h121.6c-6.9-23.4-16.8-58.2-16.8-66,0-12,10.7-106.9,8.2-128.8-3-25.6-19.8-48-21.8-59-2.1-11,.5-17.8,1.4-24.2,3.6,22.1,18.2,43.3,43.3,63.3,18.8,15,37.7,22.9,38.4,23.3,1.9.9,3.9,1.3,5.9,1.3,5.1,0,10-2.9,12.3-7.7,3.3-6.8.4-14.9-6.4-18.2-1.2-.6-2.6-1.3-4.2-2.2l4.5-14.3,8.9,3c2.3.7,4.6-.7,5.3-2.9.6-2.3-.7-4.6-2.9-5.3l-5.7-2.2s48.7-166.6,50-171c1.3-4.4,2.7-33,0-33.8-2.8-.8-16.7,24.2-18,28.6-1.3,4.4-50,171-50,171l-7.4-1.7c-2.3-.6-4.6.7-5.3,2.9-.7,2.3.7,4.6,2.9,5.3l10.2,2.9-3.4,10.9c-19.9-12.9-47.4-36.1-49.9-60.7-.1-1.2-.3-2.4-.4-3.6-36.9-1.9-65.1-11.6-83.9-29.1-9.9-9.2-15-18.6-17.7-25.4-2.2,1-4.4,2-6.6,2.9-13.8,5.7-34.7,14.4-43.1,13.3-42.3-5.3-65.9-21.4-66.1-21.5-6.6-4.7-15.7-3.1-20.4,3.4-4.7,6.6-3.2,15.7,3.4,20.4.2.1,1.3.7,2.4,1.6v42.4h-42.7c0,0-.1,0-.2,0,0,0,0,0-.1,0h0c-1.7,0-3.2,1-4.3,2.3l-25.9,34.7h-5.9c-2.1,0-3.5,2.1-2.6,4,4,8.8,15.7,28.7,39,28.7s35-19.9,39-28.7c.9-1.9-.5-4-2.6-4ZM163.9,217.3l17.3,22.4h-34.1l16.9-22.4ZM253,278.3l34.8-11.8c3-1,6,1.8,5,4.9l-21.2,95.4c-1.2,3.9-6.7,3.7-7.6-.2l-13.6-83.7c-.5-2,.7-4,2.6-4.6ZM48.7,239.7l16.9-22.4,17.3,22.4h-34.1Z"/>
    </g>
  </g>
</svg>